<?xml version="1.0" standalone="no"?>
<!DOCTYPE svg PUBLIC "-//W3C//DTD SVG 20010904//EN"
 "http://www.w3.org/TR/2001/REC-SVG-20010904/DTD/svg10.dtd">
<svg version="1.0" xmlns="http://www.w3.org/2000/svg"
 width="102.000000pt" height="102.000000pt" viewBox="0 0 102.000000 102.000000"
 preserveAspectRatio="xMidYMid meet">
<metadata>
Created by potrace 1.14, written by Peter Selinger 2001-2017
</metadata>
<g transform="translate(0.000000,102.000000) scale(0.100000,-0.100000)"
fill="#000000" stroke="none">
<path d="M170 987 c-11 -18 -21 -39 -21 -47 -8 -87 -8 -87 27 -129 20 -22 42
-41 49 -41 19 0 15 -42 -6 -57 -9 -7 -22 -25 -28 -42 -8 -18 -23 -32 -38 -36
-49 -12 -90 -54 -117 -118 -46 -110 -24 -180 98 -310 42 -45 45 -47 55 -28 25
45 -1 159 -44 198 -23 20 -23 22 -6 28 10 3 32 4 50 3 24 -2 31 -7 31 -24 0
-24 29 -54 53 -54 9 0 17 -6 17 -13 0 -7 5 -18 12 -25 8 -8 12 -45 13 -101 0
-71 4 -93 18 -108 27 -30 142 -87 161 -80 23 9 20 48 -9 87 -25 34 -27 58 -7
82 11 14 115 18 129 5 3 -4 17 -7 30 -7 13 0 46 -12 73 -26 27 -14 54 -23 60
-19 6 4 10 35 10 73 -2 81 3 116 17 134 6 7 15 27 19 43 4 17 11 35 16 42 12
15 61 6 72 -14 18 -33 66 -72 81 -67 19 7 28 41 21 74 -24 108 -29 122 -57
142 -16 12 -37 22 -46 23 -44 4 -103 29 -108 47 -4 10 -10 18 -14 18 -4 0 -7
18 -7 41 1 28 7 45 20 55 11 8 22 10 25 6 3 -5 26 -20 51 -34 42 -24 81 -30
96 -16 10 10 -75 165 -110 199 -44 44 -81 60 -147 66 -84 8 -161 -25 -171 -73
-3 -15 -10 -18 -45 -16 -23 2 -51 -1 -62 -7 -28 -16 -51 -3 -51 28 0 64 -65
120 -147 126 -40 3 -46 1 -63 -28z"/>
</g>
</svg>
